solid XMin0
  facet normal -1 -0 -0
    outer loop
       vertex -10 4 4
       vertex -10 4 -2
       vertex -10 -2 4
    endloop
  endfacet
  facet normal -1 0 0
    outer loop
       vertex -10 4 -2
       vertex -10 -2 -2
       vertex -10 -2 4
    endloop
  endfacet
endsolid XMin0
solid XMax0
  facet normal 1 -0 0
    outer loop
       vertex 10 -2 4
       vertex 10 4 -2
       vertex 10 4 4
    endloop
  endfacet
  facet normal 1 0 0
    outer loop
       vertex 10 -2 4
       vertex 10 -2 -2
       vertex 10 4 -2
    endloop
  endfacet
endsolid XMax0
solid YMin0
  facet normal 0 -1 0
    outer loop
       vertex -10 -2 -2
       vertex 10 -2 -2
       vertex 10 -2 4
    endloop
  endfacet
  facet normal 0 -1 0
    outer loop
       vertex -10 -2 4
       vertex -10 -2 -2
       vertex 10 -2 4
    endloop
  endfacet
endsolid YMin0
solid YMax0
  facet normal 0 1 0
    outer loop
       vertex 10 4 4
       vertex 10 4 -2
       vertex -10 4 -2
    endloop
  endfacet
  facet normal 0 1 0
    outer loop
       vertex 10 4 4
       vertex -10 4 -2
       vertex -10 4 4
    endloop
  endfacet
endsolid YMax0
solid ZMin0
  facet normal 0 0 -1
    outer loop
       vertex -10 -2 -2
       vertex -10 4 -2
       vertex 10 4 -2
    endloop
  endfacet
  facet normal 0 0 -1
    outer loop
       vertex 10 -2 -2
       vertex -10 -2 -2
       vertex 10 4 -2
    endloop
  endfacet
endsolid ZMin0
solid ZMax0
  facet normal 0 0 1
    outer loop
       vertex 10 4 4
       vertex -10 4 4
       vertex -10 -2 4
    endloop
  endfacet
  facet normal 0 0 1
    outer loop
       vertex 10 4 4
       vertex -10 -2 4
       vertex 10 -2 4
    endloop
  endfacet
endsolid ZMax0
